<svg width="264" height="300" viewBox="0 0 264 300" fill="none" xmlns="http://www.w3.org/2000/svg">
<path d="M128.375 0.0498699C139.096 -0.328605 144.19 1.43622 153.862 5.71892C157.451 7.01192 160.736 10.1072 163.994 11.7067C169.505 14.4137 173.645 18.2357 178.669 21.4167L209.905 40.8864C214.683 43.8459 218.41 45.8234 222.955 49.2302C227.065 52.3102 233.965 56.2007 238.578 58.8279C250.41 65.5654 260.097 76.8322 262.652 90.5002C264.23 98.9372 263.787 109.177 263.77 117.937L263.71 152.093L263.777 185.205C263.88 204.611 265.455 220.218 251.755 235.353C246.04 241.623 237.86 245.855 230.67 250.628C224.463 254.753 216.52 258.683 210.033 262.648L187.211 276.648C182.905 279.318 178.624 282.073 174.239 284.593C173.009 285.3 169.765 286.613 168.613 285.435C166.985 283.773 166.387 279.69 166.359 277.498C166.221 266.588 166.442 255.675 166.476 244.765L166.195 186.897C166.069 173.809 165.528 160.664 165.605 147.541C165.206 140.703 165.442 133.876 165.288 127.053C165.013 114.807 164.337 102.047 180.603 101.933C191.1 101.859 205.778 99.8944 207.553 114.322C208.113 118.869 208.023 124.071 208.013 128.706L207.98 147.952L208.025 188.16C207.998 200.494 207.835 212.598 208.158 224.936C222.325 215.188 226.243 211.6 226.18 193.079C226.155 185.378 226.195 176.982 226.133 169.215L226.205 133.913C226.233 122.841 228.645 100.928 218.64 92.7354C214.735 89.5359 206.245 85.3929 201.366 82.3544L167.283 61.3712C161.197 57.7002 154.998 54.3022 148.861 50.5797C142.881 46.9527 134.863 39.3047 126.965 41.5689C120.482 43.4277 114.144 48.8062 108.643 52.5912C105.794 54.5519 102.423 56.1129 99.5828 58.1367C89.5078 64.7847 79.5185 71.5964 68.957 77.4577C66.728 78.6947 64.3138 81.2249 62.0258 82.5952C54.074 87.3572 45.6998 91.5994 40.552 99.6517C36.7733 105.655 37.2403 115.237 37.2423 122.087L37.2533 138.284L37.2408 207.792C37.2775 220.615 37.7278 233.518 37.3293 246.33C37.2973 247.353 37.335 249.053 36.7595 249.938C36.47 250.38 35.9075 250.613 35.3885 250.65C33.158 250.815 18.033 240.703 15.4885 238.535C6.37826 230.768 1.27176 220.612 0.343508 208.642C-0.0534923 203.521 0.175509 198.413 0.0915088 193.287C-0.179991 176.733 0.23401 160.168 0.28676 143.609L0.164759 114.506C0.159009 108.065 -0.0197409 100.924 0.945009 94.6772C1.86901 88.6944 5.57101 78.4069 9.58901 74.0702C13.4823 70.3409 18.8848 64.6104 23.3943 61.8564C32.384 56.3662 41.1758 51.0907 49.7035 44.8609C54.0233 41.7049 59.2385 39.1687 63.7103 36.1957L88.9508 19.3819C101.258 11.0179 112.932 1.25714 128.375 0.0498699Z" fill="#0055DA"/>
<path d="M124.435 140.29C132.812 139.733 148.288 139.771 149.927 150.866C150.938 157.709 150.367 165.99 150.366 173.021C150.473 188.998 150.454 204.975 150.307 220.952C150.331 234.13 150.479 247.31 150.752 260.488C150.845 267.875 151.154 275.238 150.703 282.61C150.509 285.793 150.03 289.225 148.18 291.878C144.844 296.665 141.765 298.243 136.373 299.413C129.992 300.1 120.262 300.3 115.198 295.998C112.086 293.355 109.481 288.728 109.343 284.56C108.663 264.018 109.048 243.04 108.981 222.494C108.889 207.572 108.887 192.649 108.973 177.726C108.972 169.985 108.832 162.304 109.082 154.563C109.385 145.185 115.48 140.958 124.435 140.29Z" fill="#0055DA"/>
<path d="M69.382 177.803C74.5503 177.459 82.3528 177.4 87.0098 179.58C89.7913 180.882 91.7355 183.082 92.7808 185.973C94.9145 191.872 93.7928 223.317 93.803 231.383L93.8913 254.303C93.9138 259.913 93.8853 265.49 93.6095 271.11C93.4368 274.64 91.9188 278.003 88.3138 279.173C84.971 280.258 82.6853 279.173 79.7343 277.718C74.6373 274.545 69.1718 271.74 64.0263 268.625C57.8405 264.883 52.8153 262.605 52.5788 254.42C52.4478 249.895 52.4815 245.355 52.4865 240.81L52.5025 217.441C52.4983 209.167 52.306 200.976 52.553 192.695C52.8973 181.15 58.471 178.147 69.382 177.803Z" fill="#0055DA"/>
</svg>
